# regular icosahedron (20 triangles); generated for testing the OBJ loader
v 0.000000 -1.000000 -1.618034
v -1.000000 -1.618034 0.000000
v -1.618034 0.000000 -1.000000
v 0.000000 -1.000000 1.618034
v -1.000000 1.618034 0.000000
v 1.618034 0.000000 -1.000000
v 0.000000 1.000000 -1.618034
v 1.000000 -1.618034 0.000000
v -1.618034 0.000000 1.000000
v 0.000000 1.000000 1.618034
v 1.000000 1.618034 0.000000
v 1.618034 0.000000 1.000000
f 1 2 3
f 8 2 1
f 1 3 7
f 7 6 1
f 1 6 8
f 9 3 2
f 8 4 2
f 2 4 9
f 3 5 7
f 9 5 3
f 4 8 12
f 10 9 4
f 12 10 4
f 11 7 5
f 5 9 10
f 5 10 11
f 6 7 11
f 12 8 6
f 6 11 12
f 12 11 10
